<svg xmlns="http://www.w3.org/2000/svg" width="100" height="28.882" viewBox="0 0 100 28.882">
  <g id="logo-veci-blanco" transform="translate(-440.488 -154.422)">
    <path id="Path_7941" data-name="Path 7941" d="M467.558,157.627a2.162,2.162,0,0,1,.364,1.223,2.222,2.222,0,0,1-.261.989L456.626,183.1a2.635,2.635,0,0,1-3.852,1.327,3.4,3.4,0,0,1-1.041-1.327L440.7,159.839a2.064,2.064,0,0,1-.208-.937,2.3,2.3,0,0,1,1.457-2.134,2.223,2.223,0,0,1,1.094-.26,2.318,2.318,0,0,1,1.2.338,2.273,2.273,0,0,1,.885.963l9.057,19.515,8.954-19.515a2.226,2.226,0,0,1,.911-.963,2.548,2.548,0,0,1,1.275-.338,2.653,2.653,0,0,1,1.2.26,2.456,2.456,0,0,1,1.041.858" transform="translate(0 -1.774)" fill="#fff"/>
    <path id="Path_7942" data-name="Path 7942" d="M857.854,181.431a13.37,13.37,0,0,1-5.128-5.178,14.826,14.826,0,0,1-1.848-7.364,15.386,15.386,0,0,1,1.8-7.468,12.927,12.927,0,0,1,5.024-5.151,14.408,14.408,0,0,1,7.287-1.847,12.938,12.938,0,0,1,10.2,4.683,1.948,1.948,0,0,1,.521,1.353,2.283,2.283,0,0,1-1.145,1.925,2.031,2.031,0,0,1-1.2.364,2.614,2.614,0,0,1-2.031-.937,8.3,8.3,0,0,0-2.837-2.056,8.952,8.952,0,0,0-3.514-.651,8.488,8.488,0,0,0-6.507,2.68,10,10,0,0,0-2.5,7.1,10.566,10.566,0,0,0,1.171,5.022,8.636,8.636,0,0,0,3.279,3.461,9.266,9.266,0,0,0,4.815,1.248,8.647,8.647,0,0,0,5.726-1.821,3.263,3.263,0,0,1,1.926-.728,2.212,2.212,0,0,1,1.354.468,2.425,2.425,0,0,1,.989,1.874,1.94,1.94,0,0,1-.625,1.405,13.225,13.225,0,0,1-9.37,3.487,14.635,14.635,0,0,1-7.392-1.873" transform="translate(-348.964)" fill="#fff"/>
    <path id="Path_7943" data-name="Path 7943" d="M1073.869,183.525a2.573,2.573,0,0,1-.755-1.9V158.468a2.554,2.554,0,0,1,.755-1.925,2.644,2.644,0,0,1,4.555,1.925v23.157a2.622,2.622,0,0,1-.729,1.9,2.8,2.8,0,0,1-3.826,0" transform="translate(-537.936 -1.184)" fill="#fff"/>
    <path id="Path_7944" data-name="Path 7944" d="M668.2,170.061a2.178,2.178,0,0,0,.677-1.639,16.3,16.3,0,0,0-1.562-7.285,11.672,11.672,0,0,0-4.477-4.944,13.092,13.092,0,0,0-6.924-1.77,14.27,14.27,0,0,0-7.262,1.847,12.986,12.986,0,0,0-5,5.152,15.385,15.385,0,0,0-1.8,7.468,14.558,14.558,0,0,0,1.9,7.441,13.4,13.4,0,0,0,5.285,5.126,15.906,15.906,0,0,0,12.675.963,14.41,14.41,0,0,0,4.4-2.29,1.886,1.886,0,0,0,.833-1.561,2.274,2.274,0,0,0-.937-1.769,2.239,2.239,0,0,0-1.562-.52,2.7,2.7,0,0,0-1.718.573,9.72,9.72,0,0,1-2.785,1.4A10.576,10.576,0,0,1,650,176.592a8.978,8.978,0,0,1-2.792-3.909l-.041,0s-.133-.389-.282-1.033c-.024-.1-.042-.2-.064-.3-.025-.118-.049-.238-.073-.368-.016-.091-.039-.177-.054-.269h.007c-.345-2.042-.471-5.263,1.345-7.7a8.671,8.671,0,0,1,1.694-2.031,9,9,0,0,1,6.169-2.082,7.639,7.639,0,0,1,5.57,2.082,9.225,9.225,0,0,1,2.6,5.568h-7.837a1.466,1.466,0,0,0-1.466,1.465v1.062a1.636,1.636,0,0,0,1.636,1.636h10.061a2.379,2.379,0,0,0,1.718-.651" transform="translate(-171.227 -0.001)" fill="#fff"/>
  </g>
</svg>
